<svg xmlns="http://www.w3.org/2000/svg" width="34.877" height="39.859" viewBox="0 0 34.877 39.859"><defs><style>.a{fill:#e2e5e7;}.b{fill:#b0b7bd;}.c{fill:#cad1d8;}.d{fill:#f15642;}.e{fill:#fff;}</style></defs><path class="a" d="M98.491,0A2.5,2.5,0,0,0,96,2.491V37.368a2.5,2.5,0,0,0,2.491,2.491H123.4a2.5,2.5,0,0,0,2.491-2.491V9.965L115.93,0Z" transform="translate(-91.018)"/><path class="b" d="M354.491,9.965h7.474L352,0V7.474A2.5,2.5,0,0,0,354.491,9.965Z" transform="translate(-327.088)"/><path class="c" d="M391.474,135.474,384,128h7.474Z" transform="translate(-356.597 -118.035)"/><path class="d" d="M61.895,253.7a1.249,1.249,0,0,1-1.246,1.246h-27.4A1.249,1.249,0,0,1,32,253.7V241.246A1.249,1.249,0,0,1,33.246,240h27.4a1.249,1.249,0,0,1,1.246,1.246Z" transform="translate(-32 -221.316)"/><g transform="translate(5.43 22.913)"><path class="e" d="M101.744,295.008a.685.685,0,0,1,.676-.688h2.3a2.49,2.49,0,0,1,0,4.98h-1.663v1.315a.625.625,0,0,1-.638.686.671.671,0,0,1-.676-.686Zm1.314.567v2.481h1.663a1.241,1.241,0,0,0,0-2.481Z" transform="translate(-101.744 -294.32)"/><path class="e" d="M188.512,302.364a.623.623,0,0,1-.688-.617V296.09a.677.677,0,0,1,.688-.618h2.281c4.551,0,4.452,6.892.09,6.892Zm.628-5.676v4.462h1.653c2.689,0,2.809-4.462,0-4.462Z" transform="translate(-181.123 -295.382)"/><path class="e" d="M288.439,296.753v1.583h2.54a.77.77,0,0,1,.717.706.692.692,0,0,1-.717.6h-2.54v2.091a.59.59,0,0,1-.6.617.633.633,0,0,1-.706-.617v-5.658a.629.629,0,0,1,.706-.618h3.5a.621.621,0,0,1,.7.618.688.688,0,0,1-.7.678h-2.9Z" transform="translate(-272.703 -295.368)"/></g><path class="c" d="M119.666,417.246H96v1.246h23.666a1.249,1.249,0,0,0,1.246-1.246V416A1.249,1.249,0,0,1,119.666,417.246Z" transform="translate(-91.018 -383.614)"/></svg>